<svg xmlns="http://www.w3.org/2000/svg" xmlns:xlink="http://www.w3.org/1999/xlink" width="1212pt" height="399pt" viewBox="0.00 0.00 1212.00 399.00">
<g id="graph0" class="graph" transform="scale(1 1) rotate(0) translate(4 395.2)">
<title>G</title>
<polygon fill="white" stroke="none" points="-4,4 -4,-395.2 1208.4,-395.2 1208.4,4 -4,4"/>
<!-- Ayura -->
<g id="node1" class="node">
<title>Ayura</title>
<ellipse fill="none" stroke="black" cx="62.05" cy="-195.6" rx="35.17" ry="18"/>
<text xml:space="preserve" text-anchor="middle" x="62.05" y="-191.4" font-family="Times,serif" font-size="14.00">Ayura</text>
</g>
<!-- Envigado -->
<g id="node2" class="node">
<title>Envigado</title>
<ellipse fill="none" stroke="black" cx="48.05" cy="-106.8" rx="48.05" ry="18"/>
<text xml:space="preserve" text-anchor="middle" x="48.05" y="-102.6" font-family="Times,serif" font-size="14.00">Envigado</text>
</g>
<!-- Ayura&#45;&#45;Envigado -->
<g id="edge1" class="edge">
<title>Ayura--Envigado</title>
<path fill="none" stroke="black" d="M56.98,-177.64C55.44,-171.95 53.88,-165.54 52.83,-159.6 50.82,-148.22 49.63,-135.27 48.93,-125.16"/>
<text xml:space="preserve" text-anchor="middle" x="69.94" y="-147" font-family="Times,serif" font-size="14.00">Metro</text>
</g>
<!-- Aguacatala -->
<g id="node3" class="node">
<title>Aguacatala</title>
<ellipse fill="none" stroke="black" cx="169.05" cy="-106.8" rx="54.46" ry="18"/>
<text xml:space="preserve" text-anchor="middle" x="169.05" y="-102.6" font-family="Times,serif" font-size="14.00">Aguacatala</text>
</g>
<!-- Ayura&#45;&#45;Aguacatala -->
<g id="edge2" class="edge">
<title>Ayura--Aguacatala</title>
<path fill="none" stroke="black" d="M80.2,-179.88C99.4,-164.3 129.59,-139.81 149.35,-123.78"/>
<text xml:space="preserve" text-anchor="middle" x="142.24" y="-147" font-family="Times,serif" font-size="14.00">Metro</text>
</g>
<!-- EIA -->
<g id="node4" class="node">
<title>EIA</title>
<ellipse fill="none" stroke="black" cx="48.05" cy="-18" rx="27.13" ry="18"/>
<text xml:space="preserve" text-anchor="middle" x="48.05" y="-13.8" font-family="Times,serif" font-size="14.00">EIA</text>
</g>
<!-- Envigado&#45;&#45;EIA -->
<g id="edge3" class="edge">
<title>Envigado--EIA</title>
<path fill="none" stroke="black" d="M48.05,-88.65C48.05,-73.53 48.05,-51.61 48.05,-36.41"/>
<text xml:space="preserve" text-anchor="middle" x="58.94" y="-58.2" font-family="Times,serif" font-size="14.00">Bus</text>
</g>
<!-- Estadio -->
<g id="node5" class="node">
<title>Estadio</title>
<ellipse fill="none" stroke="black" cx="904.05" cy="-373.2" rx="40" ry="18"/>
<text xml:space="preserve" text-anchor="middle" x="904.05" y="-369" font-family="Times,serif" font-size="14.00">Estadio</text>
</g>
<!-- UPB -->
<g id="node6" class="node">
<title>UPB</title>
<ellipse fill="none" stroke="black" cx="1079.05" cy="-284.4" rx="29.82" ry="18"/>
<text xml:space="preserve" text-anchor="middle" x="1079.05" y="-280.2" font-family="Times,serif" font-size="14.00">UPB</text>
</g>
<!-- Estadio&#45;&#45;UPB -->
<g id="edge4" class="edge">
<title>Estadio--UPB</title>
<path fill="none" stroke="black" d="M930.25,-359.21C964.57,-342.18 1024.19,-312.61 1056.57,-296.55"/>
<text xml:space="preserve" text-anchor="middle" x="1024.33" y="-324.6" font-family="Times,serif" font-size="14.00">Metro</text>
</g>
<!-- Suramericana -->
<g id="node7" class="node">
<title>Suramericana</title>
<ellipse fill="none" stroke="black" cx="729.05" cy="-284.4" rx="64.12" ry="18"/>
<text xml:space="preserve" text-anchor="middle" x="729.05" y="-280.2" font-family="Times,serif" font-size="14.00">Suramericana</text>
</g>
<!-- Estadio&#45;&#45;Suramericana -->
<g id="edge5" class="edge">
<title>Estadio--Suramericana</title>
<path fill="none" stroke="black" d="M877.85,-359.21C846.19,-343.5 793.02,-317.13 759.55,-300.53"/>
<text xml:space="preserve" text-anchor="middle" x="849.33" y="-324.6" font-family="Times,serif" font-size="14.00">Metro</text>
</g>
<!-- Cisneros -->
<g id="node21" class="node">
<title>Cisneros</title>
<ellipse fill="none" stroke="black" cx="795.05" cy="-195.6" rx="44.84" ry="18"/>
<text xml:space="preserve" text-anchor="middle" x="795.05" y="-191.4" font-family="Times,serif" font-size="14.00">Cisneros</text>
</g>
<!-- Suramericana&#45;&#45;Cisneros -->
<g id="edge17" class="edge">
<title>Suramericana--Cisneros</title>
<path fill="none" stroke="black" d="M729.7,-266.22C730.85,-255.44 733.75,-241.73 740.83,-231.6 747.19,-222.51 756.74,-215.22 766.06,-209.69"/>
<text xml:space="preserve" text-anchor="middle" x="757.94" y="-235.8" font-family="Times,serif" font-size="14.00">Metro</text>
</g>
<!-- Exposiciones -->
<g id="node8" class="node">
<title>Exposiciones</title>
<ellipse fill="none" stroke="black" cx="580.05" cy="-284.4" rx="62.53" ry="18"/>
<text xml:space="preserve" text-anchor="middle" x="580.05" y="-280.2" font-family="Times,serif" font-size="14.00">Exposiciones</text>
</g>
<!-- Amsterdam -->
<g id="node9" class="node">
<title>Amsterdam</title>
<ellipse fill="none" stroke="black" cx="562.05" cy="-195.6" rx="56.09" ry="18"/>
<text xml:space="preserve" text-anchor="middle" x="562.05" y="-191.4" font-family="Times,serif" font-size="14.00">Amsterdam</text>
</g>
<!-- Exposiciones&#45;&#45;Amsterdam -->
<g id="edge6" class="edge">
<title>Exposiciones--Amsterdam</title>
<path fill="none" stroke="black" d="M576.49,-266.25C573.36,-251.13 568.81,-229.21 565.66,-214.01"/>
<text xml:space="preserve" text-anchor="middle" x="583.55" y="-235.8" font-family="Times,serif" font-size="14.00">Bus</text>
</g>
<!-- Alpujarra -->
<g id="node10" class="node">
<title>Alpujarra</title>
<ellipse fill="none" stroke="black" cx="684.05" cy="-195.6" rx="48.04" ry="18"/>
<text xml:space="preserve" text-anchor="middle" x="684.05" y="-191.4" font-family="Times,serif" font-size="14.00">Alpujarra</text>
</g>
<!-- Exposiciones&#45;&#45;Alpujarra -->
<g id="edge7" class="edge">
<title>Exposiciones--Alpujarra</title>
<path fill="none" stroke="black" d="M599.61,-267.07C618.32,-251.46 646.36,-228.05 664.92,-212.56"/>
<text xml:space="preserve" text-anchor="middle" x="656.52" y="-235.8" font-family="Times,serif" font-size="14.00">Walk</text>
</g>
<!-- ElTesoro -->
<g id="node11" class="node">
<title>ElTesoro</title>
<ellipse fill="none" stroke="black" cx="519.05" cy="-106.8" rx="46.43" ry="18"/>
<text xml:space="preserve" text-anchor="middle" x="519.05" y="-102.6" font-family="Times,serif" font-size="14.00">ElTesoro</text>
</g>
<!-- Amsterdam&#45;&#45;ElTesoro -->
<g id="edge8" class="edge">
<title>Amsterdam--ElTesoro</title>
<path fill="none" stroke="black" d="M553.55,-177.45C546.01,-162.23 535.06,-140.12 527.52,-124.91"/>
<text xml:space="preserve" text-anchor="middle" x="555.29" y="-147" font-family="Times,serif" font-size="14.00">Bus</text>
</g>
<!-- GoldenMile -->
<g id="node12" class="node">
<title>GoldenMile</title>
<ellipse fill="none" stroke="black" cx="434.05" cy="-284.4" rx="57.7" ry="18"/>
<text xml:space="preserve" text-anchor="middle" x="434.05" y="-280.2" font-family="Times,serif" font-size="14.00">GoldenMile</text>
</g>
<!-- EAFIT -->
<g id="node13" class="node">
<title>EAFIT</title>
<ellipse fill="none" stroke="black" cx="329.05" cy="-195.6" rx="38.39" ry="18"/>
<text xml:space="preserve" text-anchor="middle" x="329.05" y="-191.4" font-family="Times,serif" font-size="14.00">EAFIT</text>
</g>
<!-- GoldenMile&#45;&#45;EAFIT -->
<g id="edge9" class="edge">
<title>GoldenMile--EAFIT</title>
<path fill="none" stroke="black" d="M414.3,-267.07C395.05,-251.16 366.02,-227.17 347.3,-211.69"/>
<text xml:space="preserve" text-anchor="middle" x="404.17" y="-235.8" font-family="Times,serif" font-size="14.00">Bike</text>
</g>
<!-- LosBalsos -->
<g id="node14" class="node">
<title>LosBalsos</title>
<ellipse fill="none" stroke="black" cx="437.05" cy="-195.6" rx="51.28" ry="18"/>
<text xml:space="preserve" text-anchor="middle" x="437.05" y="-191.4" font-family="Times,serif" font-size="14.00">LosBalsos</text>
</g>
<!-- GoldenMile&#45;&#45;LosBalsos -->
<g id="edge10" class="edge">
<title>GoldenMile--LosBalsos</title>
<path fill="none" stroke="black" d="M434.64,-266.25C435.16,-251.13 435.92,-229.21 436.45,-214.01"/>
<text xml:space="preserve" text-anchor="middle" x="449.04" y="-235.8" font-family="Times,serif" font-size="14.00">Bike</text>
</g>
<!-- EAFIT&#45;&#45;Aguacatala -->
<g id="edge13" class="edge">
<title>EAFIT--Aguacatala</title>
<path fill="none" stroke="black" d="M304.75,-181.42C275.64,-165.62 226.99,-139.23 196.53,-122.71"/>
<text xml:space="preserve" text-anchor="middle" x="280.48" y="-147" font-family="Times,serif" font-size="14.00">Metro</text>
</g>
<!-- Oviedo -->
<g id="node16" class="node">
<title>Oviedo</title>
<ellipse fill="none" stroke="black" cx="307.05" cy="-106.8" rx="39.47" ry="18"/>
<text xml:space="preserve" text-anchor="middle" x="307.05" y="-102.6" font-family="Times,serif" font-size="14.00">Oviedo</text>
</g>
<!-- EAFIT&#45;&#45;Oviedo -->
<g id="edge14" class="edge">
<title>EAFIT--Oviedo</title>
<path fill="none" stroke="black" d="M324.7,-177.45C320.84,-162.23 315.24,-140.12 311.38,-124.91"/>
<text xml:space="preserve" text-anchor="middle" x="335.18" y="-147" font-family="Times,serif" font-size="14.00">Walk</text>
</g>
<!-- LosBalsos&#45;&#45;ElTesoro -->
<g id="edge25" class="edge">
<title>LosBalsos--ElTesoro</title>
<path fill="none" stroke="black" d="M452.47,-178.27C467.13,-162.76 489.06,-139.55 503.69,-124.05"/>
<text xml:space="preserve" text-anchor="middle" x="498.61" y="-147" font-family="Times,serif" font-size="14.00">Bike</text>
</g>
<!-- SantaFe -->
<g id="node15" class="node">
<title>SantaFe</title>
<ellipse fill="none" stroke="black" cx="177.05" cy="-284.4" rx="42.15" ry="18"/>
<text xml:space="preserve" text-anchor="middle" x="177.05" y="-280.2" font-family="Times,serif" font-size="14.00">SantaFe</text>
</g>
<!-- SantaFe&#45;&#45;Oviedo -->
<g id="edge11" class="edge">
<title>SantaFe--Oviedo</title>
<path fill="none" stroke="black" d="M191.8,-267.31C196.67,-261.58 201.89,-254.92 206.05,-248.4 233.94,-204.6 222.36,-182.32 256.05,-142.8 263.29,-134.3 273.07,-126.93 282.12,-121.17"/>
<text xml:space="preserve" text-anchor="middle" x="249.47" y="-191.4" font-family="Times,serif" font-size="14.00">Walk</text>
</g>
<!-- Poblado -->
<g id="node17" class="node">
<title>Poblado</title>
<ellipse fill="none" stroke="black" cx="163.05" cy="-195.6" rx="42.69" ry="18"/>
<text xml:space="preserve" text-anchor="middle" x="163.05" y="-191.4" font-family="Times,serif" font-size="14.00">Poblado</text>
</g>
<!-- SantaFe&#45;&#45;Poblado -->
<g id="edge12" class="edge">
<title>SantaFe--Poblado</title>
<path fill="none" stroke="black" d="M174.28,-266.25C171.84,-251.13 168.31,-229.21 165.86,-214.01"/>
<text xml:space="preserve" text-anchor="middle" x="186.46" y="-235.8" font-family="Times,serif" font-size="14.00">Walk</text>
</g>
<!-- Poblado&#45;&#45;Aguacatala -->
<g id="edge24" class="edge">
<title>Poblado--Aguacatala</title>
<path fill="none" stroke="black" d="M164.23,-177.45C165.28,-162.33 166.79,-140.41 167.84,-125.21"/>
<text xml:space="preserve" text-anchor="middle" x="183.69" y="-147" font-family="Times,serif" font-size="14.00">Metro</text>
</g>
<!-- Hospital -->
<g id="node18" class="node">
<title>Hospital</title>
<ellipse fill="none" stroke="black" cx="987.05" cy="-284.4" rx="43.76" ry="18"/>
<text xml:space="preserve" text-anchor="middle" x="987.05" y="-280.2" font-family="Times,serif" font-size="14.00">Hospital</text>
</g>
<!-- ParqueBerrio -->
<g id="node19" class="node">
<title>ParqueBerrio</title>
<ellipse fill="none" stroke="black" cx="920.05" cy="-195.6" rx="62.52" ry="18"/>
<text xml:space="preserve" text-anchor="middle" x="920.05" y="-191.4" font-family="Times,serif" font-size="14.00">ParqueBerrio</text>
</g>
<!-- Hospital&#45;&#45;ParqueBerrio -->
<g id="edge15" class="edge">
<title>Hospital--ParqueBerrio</title>
<path fill="none" stroke="black" d="M974.44,-267.07C962.62,-251.75 945.01,-228.93 933.05,-213.45"/>
<text xml:space="preserve" text-anchor="middle" x="976.65" y="-235.8" font-family="Times,serif" font-size="14.00">Metro</text>
</g>
<!-- Universidad -->
<g id="node20" class="node">
<title>Universidad</title>
<ellipse fill="none" stroke="black" cx="1059.05" cy="-195.6" rx="58.24" ry="18"/>
<text xml:space="preserve" text-anchor="middle" x="1059.05" y="-191.4" font-family="Times,serif" font-size="14.00">Universidad</text>
</g>
<!-- Hospital&#45;&#45;Universidad -->
<g id="edge16" class="edge">
<title>Hospital--Universidad</title>
<path fill="none" stroke="black" d="M1000.59,-267.07C1013.3,-251.75 1032.23,-228.93 1045.07,-213.45"/>
<text xml:space="preserve" text-anchor="middle" x="1046.6" y="-235.8" font-family="Times,serif" font-size="14.00">Metro</text>
</g>
<!-- Caribe -->
<g id="node26" class="node">
<title>Caribe</title>
<ellipse fill="none" stroke="black" cx="1059.05" cy="-106.8" rx="36.78" ry="18"/>
<text xml:space="preserve" text-anchor="middle" x="1059.05" y="-102.6" font-family="Times,serif" font-size="14.00">Caribe</text>
</g>
<!-- Universidad&#45;&#45;Caribe -->
<g id="edge26" class="edge">
<title>Universidad--Caribe</title>
<path fill="none" stroke="black" d="M1059.05,-177.45C1059.05,-162.33 1059.05,-140.41 1059.05,-125.21"/>
<text xml:space="preserve" text-anchor="middle" x="1076.15" y="-147" font-family="Times,serif" font-size="14.00">Metro</text>
</g>
<!-- SanAntonio -->
<g id="node22" class="node">
<title>SanAntonio</title>
<ellipse fill="none" stroke="black" cx="868.05" cy="-284.4" rx="57.18" ry="18"/>
<text xml:space="preserve" text-anchor="middle" x="868.05" y="-280.2" font-family="Times,serif" font-size="14.00">SanAntonio</text>
</g>
<!-- SanAntonio&#45;&#45;Alpujarra -->
<g id="edge18" class="edge">
<title>SanAntonio--Alpujarra</title>
<path fill="none" stroke="black" d="M835.76,-269.21C823.3,-263.31 809.11,-256.04 796.83,-248.4 786.45,-241.94 785.71,-237.59 775.05,-231.6 757.78,-221.9 737.29,-213.75 720.13,-207.77"/>
<text xml:space="preserve" text-anchor="middle" x="813.94" y="-235.8" font-family="Times,serif" font-size="14.00">Metro</text>
</g>
<!-- SanAntonio&#45;&#45;ParqueBerrio -->
<g id="edge19" class="edge">
<title>SanAntonio--ParqueBerrio</title>
<path fill="none" stroke="black" d="M881.97,-266.82C886.41,-261.16 891.18,-254.67 895.05,-248.4 901.87,-237.36 908.21,-224.17 912.8,-213.87"/>
<text xml:space="preserve" text-anchor="middle" x="921.37" y="-235.8" font-family="Times,serif" font-size="14.00">Metro</text>
</g>
<!-- SanAntonio&#45;&#45;Cisneros -->
<g id="edge20" class="edge">
<title>SanAntonio--Cisneros</title>
<path fill="none" stroke="black" d="M858.77,-266.23C852.7,-255.72 844.22,-242.28 835.05,-231.6 829.03,-224.6 821.62,-217.73 814.81,-211.95"/>
<text xml:space="preserve" text-anchor="middle" x="864.34" y="-235.8" font-family="Times,serif" font-size="14.00">Metro</text>
</g>
<!-- Acevedo -->
<g id="node23" class="node">
<title>Acevedo</title>
<ellipse fill="none" stroke="black" cx="1159.05" cy="-106.8" rx="45.35" ry="18"/>
<text xml:space="preserve" text-anchor="middle" x="1159.05" y="-102.6" font-family="Times,serif" font-size="14.00">Acevedo</text>
</g>
<!-- Tricentenario -->
<g id="node24" class="node">
<title>Tricentenario</title>
<ellipse fill="none" stroke="black" cx="1120.05" cy="-18" rx="63.05" ry="18"/>
<text xml:space="preserve" text-anchor="middle" x="1120.05" y="-13.8" font-family="Times,serif" font-size="14.00">Tricentenario</text>
</g>
<!-- Acevedo&#45;&#45;Tricentenario -->
<g id="edge21" class="edge">
<title>Acevedo--Tricentenario</title>
<path fill="none" stroke="black" d="M1151.34,-88.65C1144.5,-73.43 1134.57,-51.32 1127.74,-36.11"/>
<text xml:space="preserve" text-anchor="middle" x="1160.15" y="-58.2" font-family="Times,serif" font-size="14.00">Metro</text>
</g>
<!-- Industriales -->
<g id="node25" class="node">
<title>Industriales</title>
<ellipse fill="none" stroke="black" cx="299.05" cy="-284.4" rx="56.09" ry="18"/>
<text xml:space="preserve" text-anchor="middle" x="299.05" y="-280.2" font-family="Times,serif" font-size="14.00">Industriales</text>
</g>
<!-- Industriales&#45;&#45;Alpujarra -->
<g id="edge23" class="edge">
<title>Industriales--Alpujarra</title>
<path fill="none" stroke="black" d="M341.75,-272.27C350.12,-270.22 358.84,-268.17 367.05,-266.4 410.76,-256.97 422.37,-258.02 466.05,-248.4 495.1,-242 501.8,-238.07 530.83,-231.6 573.29,-222.13 584.76,-223.83 627.05,-213.6 633.87,-211.95 641.09,-209.98 648.02,-207.97"/>
<text xml:space="preserve" text-anchor="middle" x="547.94" y="-235.8" font-family="Times,serif" font-size="14.00">Metro</text>
</g>
<!-- Industriales&#45;&#45;Poblado -->
<g id="edge22" class="edge">
<title>Industriales--Poblado</title>
<path fill="none" stroke="black" d="M274.73,-267.88C249.52,-251.79 210.41,-226.83 185.79,-211.12"/>
<text xml:space="preserve" text-anchor="middle" x="260.34" y="-235.8" font-family="Times,serif" font-size="14.00">Metro</text>
</g>
<!-- Caribe&#45;&#45;Tricentenario -->
<g id="edge27" class="edge">
<title>Caribe--Tricentenario</title>
<path fill="none" stroke="black" d="M1070.52,-89.47C1081.22,-74.25 1097.12,-51.63 1108,-36.14"/>
<text xml:space="preserve" text-anchor="middle" x="1112.12" y="-58.2" font-family="Times,serif" font-size="14.00">Metro</text>
</g>
</g>
</svg>